#!OML:ASF F:\VICON\USERDATA\INSTALL\rory3\rory3.ASF
:FULLY-SPECIFIED
:DEGREES
528
root 15.241 17.8376 13.1851 -2.74367 185.517 0.156903
lowerback 12.4875 0.303405 -4.63817
upperback 0.494662 -0.318117 0.533372
thorax -6.46983 -0.0484701 3.24782
lowerneck -18.3643 -5.81657 -12.5348
upperneck 29.217 -9.7996 10.9096
head 14.2644 -4.86109 4.6426
rclavicle 2.34939e-014 -1.98785e-015
rhumerus -41.448 -24.9849 -69.0806
rradius 35.376
rwrist 8.81662
rhand -16.6524 8.56312
rfingers 7.12502
rthumb 9.57075 -21.1995
lclavicle 2.34939e-014 -1.98785e-015
lhumerus -37.1031 3.5103 79.8326
lradius 36.185
lwrist -2.37554
lhand -17.3948 24.075
lfingers 7.12502
lthumb 8.85437 53.8692
rfemur -11.6969 -7.34771 9.12422
rtibia 38.7465
rfoot -16.3791 1.86833
rtoes -6.20421
lfemur -1.54172 -3.94077 -17.9623
ltibia 22.8074
lfoot -15.6357 -2.97011
ltoes -3.17236
529
root 15.3149 17.8422 13.176 -2.71423 185.396 0.328692
lowerback 12.3588 0.265842 -4.45537
upperback 0.476516 -0.324229 0.654119
thorax -6.4161 -0.0545556 3.27199
lowerneck -18.3824 -5.7888 -12.5845
upperneck 29.2346 -9.692 10.793
head 14.2541 -4.8318 4.62418
rclavicle 5.34234e-015 -3.97569e-016
rhumerus -41.4331 -24.809 -69.1543
rradius 35.415
rwrist 7.99748
rhand -16.9532 8.16817
rfingers 7.12502
rthumb 9.28046 -21.6076
lclavicle 5.34234e-015 -3.97569e-016
lhumerus -37.2119 3.85884 79.7254
lradius 36.052
lwrist -2.51382
lhand -17.1513 24.3537
lfingers 7.12502
lthumb 9.08933 54.1378
rfemur -11.2474 -6.56657 8.69039
rtibia 37.6001
rfoot -15.2651 0.196837
rtoes -4.85225
lfemur -1.45751 -4.01994 -17.4988
ltibia 22.5419
lfoot -15.523 -2.84302
ltoes -3.38726
530
root 15.3908 17.8391 13.162 -2.67838 185.243 0.320102
lowerback 12.1254 0.254442 -4.42566
upperback 0.552371 -0.320579 0.704958
thorax -6.20454 -0.0602147 3.30524
lowerneck -18.4773 -5.79816 -12.6755
upperneck 29.1347 -9.60614 10.7653
head 14.222 -4.79325 4.64232
rclavicle -5.65294e-015 -1.98785e-015
rhumerus -41.2127 -24.6681 -69.3256
rradius 35.3949
rwrist 7.40089
rhand -17.1871 7.7832
rfingers 7.12502
rthumb 9.05483 -22.0025
lclavicle -5.65294e-015 -1.98785e-015
lhumerus -37.1426 4.06593 79.6541
lradius 35.8726
lwrist -2.55724
lhand -17.2683 23.9108
lfingers 7.12502
lthumb 8.97647 53.6998
rfemur -10.7772 -5.85836 8.02806
rtibia 36.4515
rfoot -14.316 -1.36242
rtoes -3.82473
lfemur -1.33147 -4.13003 -17.2574
ltibia 22.2842
lfoot -15.4382 -2.56008
ltoes -5.0553
531
root 15.4644 17.8346 13.1434 -2.6993 185.076 0.182364
lowerback 12.0386 0.305582 -4.46696
upperback 0.575564 -0.255632 0.683662
thorax -6.13709 -0.0299117 3.29389
lowerneck -18.4918 -5.80472 -12.7505
upperneck 29.0468 -9.5895 10.8457
head 14.1942 -4.77844 4.6901
rclavicle -5.28022e-015 -6.06293e-015
rhumerus -41.1537 -24.8507 -69.2815
rradius 35.2925
rwrist 7.24665
rhand -17.3016 7.12538
rfingers 7.12502
rthumb 8.94434 -22.665
lclavicle -5.28022e-015 -6.06293e-015
lhumerus -37.1018 4.1246 79.5853
lradius 35.6531
lwrist -2.63881
lhand -17.5769 23.5836
lfingers 7.12502
lthumb 8.67862 53.3852
rfemur -10.1992 -5.21128 7.20106
rtibia 35.3035
rfoot -13.5152 -2.96092
rtoes -2.48982
lfemur -1.0919 -4.16079 -17.1583
ltibia 22.0305
lfoot -15.4399 -2.39993
ltoes -6.11743
532
root 15.5401 17.838 13.1272 -2.7089 185.013 0.190946
lowerback 12.0461 0.314645 -4.37443
upperback 0.48298 -0.225421 0.716072
thorax -6.2423 -0.0106348 3.27112
lowerneck -18.4977 -5.75314 -12.7078
upperneck 29.1161 -9.50446 10.7462
head 14.2029 -4.75212 4.6595
rclavicle 4.28629e-015 -1.0635e-014
rhumerus -41.3218 -24.9196 -69.1455
rradius 35.2856
rwrist 7.24343
rhand -17.3741 7.17892
rfingers 7.12502
rthumb 8.87434 -22.6145
lclavicle 4.28629e-015 -1.0635e-014
lhumerus -37.1445 4.34983 79.4602
lradius 35.3177
lwrist -2.85722
lhand -17.5782 23.567
lfingers 7.12502
lthumb 8.67744 53.3687
rfemur -9.58479 -4.57844 6.56927
rtibia 34.1658
rfoot -12.5619 -4.989
rtoes 0.189071
lfemur -0.880528 -4.11859 -16.8582
ltibia 21.7486
lfoot -15.3999 -2.43621
ltoes -5.65375
533
root 15.6213 17.8422 13.1157 -2.63226 184.957 0.149498
lowerback 11.9875 0.318399 -4.35526
upperback 0.396443 -0.209432 0.739763
thorax -6.30261 0.0024549 3.2824
lowerneck -18.5454 -5.7626 -12.6814
upperneck 29.1473 -9.46336 10.5932
head 14.2092 -4.74637 4.59941
rclavicle 2.91965e-016 -2.98177e-015
rhumerus -41.4217 -25.0166 -69.0305
rradius 35.2266
rwrist 7.35168
rhand -17.418 7.35991
rfingers 7.12502
rthumb 8.83198 -22.4353
lclavicle 2.91965e-016 -2.98177e-015
lhumerus -37.2521 4.53273 79.363
lradius 35.1546
lwrist -3.04038
lhand -17.4936 24.0711
lfingers 7.12502
lthumb 8.75907 53.8693
rfemur -9.0891 -3.97301 5.91723
rtibia 33.0644
rfoot -11.5525 -6.99744
rtoes 3.30047
lfemur -0.749986 -4.2446 -16.6119
ltibia 21.441
lfoot -15.2651 -2.36946
ltoes -5.07576
534
root 15.7043 17.8458 13.0999 -2.64372 184.918 0.203392
lowerback 11.9084 0.32242 -4.23169
upperback 0.430762 -0.18221 0.763481
thorax -6.22413 0.00962214 3.23186
lowerneck -18.6475 -5.82963 -12.7122
upperneck 29.0631 -9.51215 10.614
head 14.2064 -4.75566 4.60082
rclavicle -1.2219e-014 3.18055e-015
rhumerus -41.3543 -25.2088 -69.003
rradius 35.1089
rwrist 7.40991
rhand -17.4558 7.17841
rfingers 7.12502
rthumb 8.79553 -22.6183
lclavicle -1.2219e-014 3.18055e-015
lhumerus -37.2837 4.59456 79.2834
lradius 35.0753
lwrist -3.08567
lhand -17.5012 24.2334
lfingers 7.12502
lthumb 8.75169 54.0319
rfemur -8.50744 -3.3486 5.38054
rtibia 32.0529
rfoot -10.6212 -8.59199
rtoes 7.06321
lfemur -0.493922 -4.42301 -16.2749
ltibia 21.0826
lfoot -15.1412 -2.18548
ltoes -5.48951
535
root 15.7884 17.8474 13.0809 -2.70668 184.852 0.26934
lowerback 11.88 0.315989 -4.11721
upperback 0.435279 -0.170684 0.809461
thorax -6.20429 0.0121476 3.21339
lowerneck -18.7637 -5.84477 -12.7777
upperneck 29.1011 -9.50574 10.6399
head 14.2535 -4.75218 4.62398
rclavicle 2.06705e-014 5.1684e-015
rhumerus -41.334 -25.3794 -68.9272
rradius 34.9843
rwrist 7.41503
rhand -17.3871 7.54624
rfingers 7.12502
rthumb 8.86183 -22.2477
lclavicle 2.06705e-014 5.1684e-015
lhumerus -37.3371 4.66024 79.1985
lradius 34.8433
lwrist -3.02654
lhand -17.8222 23.9985
lfingers 7.12502
lthumb 8.44194 53.8098
rfemur -7.90356 -2.56734 4.88716
rtibia 31.232
rfoot -9.77842 -10.0759
rtoes 11.3117
lfemur -0.113986 -4.4752 -15.9076
ltibia 20.5669
lfoot -14.981 -2.16866
ltoes -5.76859
536
root 15.8756 17.8401 13.064 -2.74389 184.702 0.268836
lowerback 11.8122 0.323319 -4.1071
upperback 0.396988 -0.15156 0.853366
thorax -6.20836 0.0238592 3.25044
lowerneck -18.7414 -5.7879 -12.7646
upperneck 29.1416 -9.41313 10.5683
head 14.2459 -4.72338 4.61121
rclavicle 2.7364e-015 -4.82053e-015
rhumerus -41.4461 -25.322 -68.8618
rradius 34.9593
rwrist 7.3992
rhand -17.3186 7.89967
rfingers 7.12502
rthumb 8.92793 -21.8914
lclavicle 2.7364e-015 -4.82053e-015
lhumerus -37.4432 4.76742 79.063
lradius 34.5902
lwrist -3.001
lhand -17.985 23.7797
lfingers 7.12502
lthumb 8.28483 53.5972
rfemur -7.46022 -1.86933 4.36608
rtibia 30.5599
rfoot -8.73046 -11.4625
rtoes 13.5956
lfemur 0.295065 -4.42542 -15.6041
ltibia 19.9458
lfoot -14.7136 -2.01574
ltoes -6.99611
537
root 15.9673 17.8219 13.0502 -2.79741 184.596 0.307962
lowerback 11.7809 0.316184 -4.08786
upperback 0.384216 -0.152773 0.908532
thorax -6.20414 0.0240755 3.29792
lowerneck -18.7341 -5.72828 -12.7229
upperneck 29.126 -9.33187 10.558
head 14.2213 -4.6855 4.61523
rclavicle 3.24267e-015 -1.98785e-016
rhumerus -41.5299 -25.1405 -68.8774
rradius 35.0039
rwrist 7.49877
rhand -17.1817 7.6498
rfingers 7.12502
rthumb 9.06001 -22.1356
lclavicle 3.24267e-015 -1.98785e-016
lhumerus -37.5467 4.86893 78.9213
lradius 34.4941
lwrist -2.96579
lhand -18.1388 23.4759
lfingers 7.12502
lthumb 8.13639 53.2993
rfemur -7.07771 -1.42853 3.90787
rtibia 29.9636
rfoot -7.44723 -12.5841
rtoes 13.2072
lfemur 0.723167 -4.40527 -15.257
ltibia 19.3346
lfoot -14.5092 -1.55831
ltoes -10.4209
